<svg xmlns="http://www.w3.org/2000/svg" xmlns:xlink="http://www.w3.org/1999/xlink" viewBox="0 0 285.55 196.19"><defs><style>.cls-1{fill:url(#linear-gradient);}.cls-2{fill:#9167f7;}.cls-3{opacity:0.15;}.cls-15,.cls-16,.cls-17,.cls-3,.cls-4,.cls-5,.cls-6,.cls-9{isolation:isolate;}.cls-4{opacity:0.1;}.cls-5{opacity:0.07;}.cls-6{fill:#fff;opacity:0.2;}.cls-7{fill:#e0e0e0;}.cls-16,.cls-8{fill:#f55f44;}.cls-9{opacity:0.05;}.cls-10{fill:url(#linear-gradient-2);}.cls-11{fill:#f5f5f5;}.cls-12{fill:#dbdbdb;}.cls-13,.cls-15,.cls-16,.cls-17{opacity:0.5;}.cls-14,.cls-17{fill:#47e6b1;}.cls-15{fill:#4d8af0;}</style><linearGradient id="linear-gradient" x1="278.13" y1="363.91" x2="278.13" y2="511.04" gradientTransform="matrix(1, 0, 0, -1, -138.45, 526.13)" gradientUnits="userSpaceOnUse"><stop offset="0" stop-color="gray" stop-opacity="0.25"/><stop offset="0.54" stop-color="gray" stop-opacity="0.12"/><stop offset="1" stop-color="gray" stop-opacity="0.1"/></linearGradient><linearGradient id="linear-gradient-2" x1="-584.13" y1="-3136.67" x2="-584.13" y2="-3111.95" gradientTransform="matrix(0, 1, 1, 0, 3212.2, 734.98)" xlink:href="#linear-gradient"/></defs><title>Asset 15</title><g id="Layer_2" data-name="Layer 2"><g id="Layer_1-2" data-name="Layer 1"><path class="cls-1" d="M279.37,69.3a5.71,5.71,0,0,0-2.85-4.94v-16h-.11v-.05h-12.3l-129.2-33.2L0,53.1v6.65L64.57,84.12l-3.76,64.93c34.35,9.78,61.39,13.33,82.63,13.17h1.12c62.46-.85,74.05-34.06,74.05-34.06-3.38-17.6-2.91-37.13-2.34-46.9L272.67,56l-.8-4.8h.85V63.68a5.7,5.7,0,0,0-1.51,10.76L267,84.5a3.59,3.59,0,0,0,1.7,1.2l-11.2,30.16a25.37,25.37,0,0,0,3.85,2.54l1.8,1.2.05-.3c3.06,1.34,6.91,2.19,10.39.54l.95-.24-.15-.19a10.57,10.57,0,0,0,2.1-1.67l-.95-32.3-.81-10.56A5.72,5.72,0,0,0,279.37,69.3Z"/><path class="cls-2" d="M216.45,127.12S196.1,185.41,62.87,147.47l3.71-63.84,102.7-14.8,45.33,6.47S211.82,103.06,216.45,127.12Z"/><polygon class="cls-3" points="66.56 83.63 66.56 89.18 143.36 116.01 210.9 87.33 211.82 81.78 143.36 106.76 66.56 83.63"/><path class="cls-3" d="M214.7,75.31l-45.33-6.48-1.49.21,43.84,6.27s-2.78,27.75,1.85,51.81c0,0-11.4,32.66-73,33.17,64.23.54,76-33.17,76-33.17C211.93,103.06,214.7,75.31,214.7,75.31Z"/><rect class="cls-2" x="269.24" y="49.4" width="3.7" height="16.71"/><rect class="cls-4" x="269.24" y="49.4" width="3.7" height="16.71"/><path class="cls-2" d="M254.44,115.14s11.1,9.35,18.5,1.85L272,85.53l-5.55-2.77Z"/><path class="cls-4" d="M254.44,115.14s11.1,9.35,18.5,1.85L272,85.53l-5.55-2.77Z"/><polygon class="cls-2" points="3.65 54.02 3.65 60.5 143.36 113.24 269.19 56.8 268.26 51.25 142.43 106.76 3.65 54.02"/><polygon class="cls-5" points="3.65 54.02 3.65 60.5 143.36 113.24 269.19 56.8 268.26 51.25 142.43 106.76 3.65 54.02"/><polygon class="cls-2" points="3.65 54.02 143.1 108.1 268.26 51.25 135.03 17.02 3.65 54.02"/><ellipse class="cls-2" cx="137.78" cy="48.91" rx="9.22" ry="5.99"/><ellipse class="cls-4" cx="137.78" cy="48.91" rx="9.22" ry="5.99"/><rect class="cls-2" x="144.23" y="49.35" width="128.61" height="2.78"/><rect class="cls-4" x="144.23" y="49.35" width="128.61" height="2.78"/><circle class="cls-2" cx="270.17" cy="69.81" r="5.55"/><circle class="cls-4" cx="270.17" cy="69.81" r="5.55"/><path class="cls-2" d="M263.69,84.61s1.85,2.87,8.33.92l-.93-12h-2.78Z"/><path class="cls-4" d="M263.69,84.61s1.85,2.87,8.33.92l-.93-12h-2.78Z"/><polygon class="cls-6" points="257.16 116.94 260.86 112.31 259.93 118.79 257.16 116.94"/><polygon class="cls-6" points="267.34 114.16 267.34 119.72 271.04 118.79 267.34 114.16"/><path class="cls-3" d="M81.37,116.94s27.75,9.25,44.41,3.69Z"/><path class="cls-3" d="M156.86,123.4s29.2,1.83,43.88-7.8Z"/><path class="cls-3" d="M176.9,145.37s17-6.43,25.68-13Z"/><path class="cls-3" d="M74,130.82s29.61,12,37,7.4Z"/><ellipse class="cls-7" cx="11.43" cy="121.01" rx="11.77" ry="1.76" transform="translate(-105.45 87.66) rotate(-68.68)"/><ellipse class="cls-7" cx="164.35" cy="180.76" rx="11.77" ry="1.2" transform="translate(-63.8 268.15) rotate(-68.68)"/><rect class="cls-8" x="63.1" y="163.02" width="23.54" height="7.06" transform="matrix(0.57, -0.82, 0.82, 0.57, -104.81, 133.98)"/><rect class="cls-9" x="67.51" y="164.43" width="23.54" height="7.94" transform="matrix(0.14, -0.99, 0.99, 0.14, -98.67, 222.97)"/><rect class="cls-8" x="67.49" y="165.14" width="23.53" height="7.06" transform="translate(-98.86 223.53) rotate(-81.95)"/><rect class="cls-10" x="75.54" y="68.77" width="24.71" height="164.17" transform="translate(-84.59 177.88) rotate(-68.68)"/><path class="cls-11" d="M160.08,191.67C157.1,190.55,5,131.12,7.15,132c7-13.08,8.56-21.93,8.56-21.93l152.93,59.69S164.3,179.23,160.08,191.67Z"/><rect class="cls-9" x="73.43" y="142.03" width="23.47" height="13.5" transform="translate(-84.33 174.49) rotate(-68.84)"/><rect class="cls-8" x="72.85" y="143.4" width="23.54" height="12.36" transform="translate(-85.49 174.02) rotate(-68.68)"/><rect class="cls-9" x="72.57" y="145.35" width="23.54" height="8.24" transform="translate(-85.57 173.7) rotate(-68.68)"/><rect class="cls-8" x="72.58" y="145.94" width="23.54" height="7.06" transform="translate(-85.57 173.7) rotate(-68.68)"/><circle class="cls-12" cx="106.45" cy="189.1" r="0.98"/><g class="cls-13"><rect class="cls-14" x="28.69" y="161.63" width="1.01" height="5.7"/><rect class="cls-14" x="26.34" y="163.98" width="5.7" height="1.01"/></g><g class="cls-13"><rect class="cls-14" x="282.2" y="90.54" width="1.01" height="5.7"/><rect class="cls-14" x="279.85" y="92.89" width="5.7" height="1.01"/></g><g class="cls-13"><rect class="cls-14" x="34.72" y="19.78" width="1.01" height="5.7"/><rect class="cls-14" x="32.38" y="22.13" width="5.7" height="1.01"/></g><g class="cls-13"><rect class="cls-14" x="252.02" y="11.07" width="1.01" height="5.7"/><rect class="cls-14" x="249.67" y="13.41" width="5.7" height="1.01"/></g><path class="cls-15" d="M23,85a1.24,1.24,0,0,1-.67-1.49.31.31,0,0,0,0-.13h0a.62.62,0,0,0-.58-.66.62.62,0,0,0-.53.25h0a.47.47,0,0,0-.07.12,1.23,1.23,0,0,1-1.49.67.61.61,0,0,0-.13,0h0a.62.62,0,0,0-.66.58.61.61,0,0,0,.25.53h0a.47.47,0,0,0,.12.07,1.23,1.23,0,0,1,.67,1.49.58.58,0,0,0,0,.14h0a.62.62,0,0,0,.55.67A.58.58,0,0,0,21,87h0a.75.75,0,0,0,.07-.12,1.23,1.23,0,0,1,1.49-.67l.14,0h0a.62.62,0,0,0,.65-.58.6.6,0,0,0-.24-.53h0A.6.6,0,0,0,23,85Z"/><path class="cls-15" d="M80.63,18.93A1.22,1.22,0,0,1,80,17.44l0-.13h0a.62.62,0,0,0-.58-.66.61.61,0,0,0-.53.25h0a.47.47,0,0,0-.07.12,1.24,1.24,0,0,1-1.49.67.58.58,0,0,0-.14,0h0a.62.62,0,0,0-.65.58.6.6,0,0,0,.24.53h0l.12.07a1.24,1.24,0,0,1,.68,1.49.32.32,0,0,0,0,.14h0a.61.61,0,0,0,.55.67.59.59,0,0,0,.56-.25h0a.75.75,0,0,0,.07-.12,1.22,1.22,0,0,1,1.49-.67l.14,0h0a.62.62,0,0,0,.65-.58.61.61,0,0,0-.25-.53h0A.54.54,0,0,0,80.63,18.93Z"/><path class="cls-15" d="M95.72,194a1.21,1.21,0,0,1-.67-1.48l0-.14h0a.62.62,0,0,0-.58-.66.61.61,0,0,0-.53.25h0a.75.75,0,0,0-.07.12,1.23,1.23,0,0,1-1.49.67l-.14,0h0a.62.62,0,0,0-.65.58.6.6,0,0,0,.24.53h0l.12.07a1.23,1.23,0,0,1,.67,1.49.59.59,0,0,0,0,.14h0a.6.6,0,0,0,.55.67.59.59,0,0,0,.56-.25h0a.35.35,0,0,0,.07-.12,1.23,1.23,0,0,1,1.49-.67.31.31,0,0,0,.13,0h0a.62.62,0,0,0,.66-.58.61.61,0,0,0-.25-.53h0Z"/><circle class="cls-16" cx="273.48" cy="148.89" r="2.01"/><circle class="cls-15" cx="184.95" cy="192.48" r="2.01"/><circle class="cls-17" cx="219.15" cy="155.26" r="2.01"/><circle class="cls-16" cx="156.78" cy="2.01" r="2.01"/></g></g></svg>